<svg width="22" height="20" viewBox="0 0 22 20" fill="none" xmlns="http://www.w3.org/2000/svg">
<path fill-rule="evenodd" clip-rule="evenodd" d="M10.9999 1.94228C12.1757 0.85872 13.7069 0.25 15.3053 0.25C17.0313 0.25 18.679 0.959767 19.8854 2.21074C21.0832 3.45181 21.75 5.1248 21.75 6.86222C21.75 8.5997 21.0831 10.2728 19.8854 11.5137C19.089 12.3393 18.2938 13.1836 17.4945 14.0323C15.871 15.7562 14.2301 17.4985 12.5256 19.14L12.5216 19.1438C11.6426 19.9779 10.2505 19.9476 9.40903 19.0754L2.11399 11.5136C-0.37133 8.93736 -0.37133 4.78707 2.11399 2.21085C4.54605 -0.310155 8.46239 -0.399677 10.9999 1.94228Z" fill="white"/>
</svg>
