<?xml version="1.0" encoding="utf-8"?>
<!-- Generator: Adobe Illustrator 27.2.0, SVG Export Plug-In . SVG Version: 6.00 Build 0)  -->
<svg version="1.1" xmlns="http://www.w3.org/2000/svg" xmlns:xlink="http://www.w3.org/1999/xlink" x="0px" y="0px"
	 viewBox="0 0 595.28 841.89" style="enable-background:new 0 0 595.28 841.89;" xml:space="preserve">
<g id="Слой_1">
</g>
<g id="Слой_2">
	<g>
		<g>
			<g>
				<path d="M223.35,485.99c9.86-1.26,19.02-4.89,28.1-8.78c4.37-1.87,8.74-3.72,13.16-5.46c4.36-1.71,8.77-3.45,12.76-5.93
					c2.19-1.36,4.17-2.98,6.11-4.67c1.78-1.54,3.61-3.14,5.88-3.89c3.04-1.01,1.74-5.84-1.33-4.82c-4.31,1.43-7.21,4.72-10.73,7.39
					c-3.62,2.74-7.83,4.63-12.03,6.31c-8.81,3.53-17.47,7.54-26.4,10.79c-5.02,1.83-10.22,3.38-15.53,4.05
					c-1.34,0.17-2.5,1.03-2.5,2.5C220.85,484.71,222,486.16,223.35,485.99L223.35,485.99z"/>
			</g>
		</g>
		<g>
			<g>
				<path d="M428.24,284.58c-9.5,22.3-21.89,43.23-35.58,63.2c-13.85,20.21-29.25,39.22-43.99,58.77
					c-8.43,11.19-16.5,22.68-23.31,34.94c-1.56,2.82,2.75,5.34,4.32,2.52c12.05-21.7,27.95-40.85,43.01-60.47
					c14.76-19.24,29.01-38.95,41.3-59.89c6.93-11.79,13.21-23.97,18.57-36.56c0.53-1.24,0.37-2.68-0.9-3.42
					C430.61,283.07,428.77,283.33,428.24,284.58L428.24,284.58z"/>
			</g>
		</g>
		<path d="M429.56,273.95c1.25,0.09,2.01,2.41,2.38,3.56c3.42,10.74-3.39,22.8-5.28,26.04c-13.43,23.11-29.24,44.53-33.53,50.38
			c-10.75,14.68-27.68,38.86-28.51,38.3c-0.34-0.23,2.28-4.42,1.19-5.36c-0.62-0.54-1.94,0.44-5.27,1.36
			c-2.74,0.75-4.27,1.2-4.69,0.77c-2.39-2.43,9.48-16.46,23.74-36.26c20.29-28.16,36.19-55.15,38.38-53.91
			c0.39,0.22,0.12,1.24,0.43,1.31C419.97,300.49,425.24,273.63,429.56,273.95z"/>
		<g>
			<g>
				<path d="M225.22,382.07c1.61,2.38,3.76,2.44,5.56,3.01c12.09,3.84,21.95,10.71,29.36,20.92c9.7,13.36,13.23,28.66,14.29,44.72
					c0.13,1.92-0.78,3.31-2.5,4.22c-10.5,5.54-20.96,11.2-32.15,15.32c-1.4,0.52-2.87,0.96-4.34,1.17
					c-2.26,0.34-3.44-0.58-3.36-2.81c0.06-1.69,0.37-3.51,1.09-5.03c2.61-5.48,5.44-10.86,8.17-16.29c0.5-1,1.68-1.88,0.56-3.68
					c-1.05,0.99-2.05,1.7-2.77,2.63c-4.73,6.09-9.61,12.08-14.03,18.38c-2.83,4.05-5.11,8.51-7.33,12.93
					c-1.11,2.21-1.68,4.85,0.42,6.96c1.99,2,4.49,1.37,6.71,0.53c4.91-1.86,9.87-3.67,14.56-5.98c9.64-4.76,19.07-9.92,28.68-14.75
					c4.91-2.46,9.99-4.59,15.04-6.78c1.12-0.48,2.41-0.77,3.63-0.79c1.23-0.03,1.87,0.9,1.29,2.04c-0.62,1.2-1.44,2.33-2.35,3.34
					c-1.75,1.94-3.66,3.74-5.42,5.67c-0.67,0.73-1.09,1.67-1.63,2.52c0.21,0.23,0.43,0.46,0.64,0.7c1.44-0.61,2.97-1.06,4.3-1.86
					c7.18-4.3,14.36-8.6,21.44-13.06c19.07-12.01,37.48-24.87,52.59-41.74c3.73-4.16,7.49-8.4,10.51-13.05
					c2.32-3.58,3.88-7.77,5.11-11.88c1.63-5.47-1.17-7.89-6.63-6.2c-1.38,0.43-2.75,0.87-4.13,1.31c-0.19-0.23-0.38-0.46-0.57-0.69
					c0.81-1.31,1.55-2.67,2.43-3.93c17.61-25.45,35.3-50.85,52.79-76.38c3.92-5.73,7.27-11.86,10.59-17.96
					c1.28-2.35,2.09-5.07,2.53-7.72c0.59-3.61-1.54-5.69-5.21-5.52c-1.36,0.06-2.73,0.37-4.06,0.72
					c-6.27,1.63-12.07,4.34-17.07,8.36c-7.68,6.17-15.34,12.39-22.56,19.07c-8.6,7.94-16.72,16.4-25.06,24.61
					c-2.92,2.87-4.12,2.92-7.4,0.44c-0.6-0.45-1.15-0.95-1.71-1.45c-7.69-6.9-11.71-15.59-13-25.66c-0.32-2.49-0.76-4.96-1.15-7.44
					c-0.31,0.02-0.62,0.03-0.93,0.05c-0.58,3.63-1.12,7.26-1.73,10.89c-1.9,11.32-6.97,20.66-17.48,26.32
					c-2.82,1.52-6.05,2.3-9.1,3.41c-1.2,0.44-2.82,0.22-3.21,1.88c0.2,0.34,0.28,0.66,0.46,0.73c1.73,0.72,3.46,1.44,5.21,2.1
					c9.24,3.48,15.84,9.76,20.12,18.51c2.7,5.53,4.09,11.41,4.76,17.49c0.14,1.22-0.2,2.73,1.79,3.75c0.46-1.76,0.98-3.24,1.21-4.77
					c0.91-6.04,2.61-11.83,5.13-17.42c4.69-10.44,12.2-17.38,23.91-19.31c1.03-0.17,2.33-0.09,2.71-1.85
					c-1.66-0.51-3.34-0.93-4.93-1.55c-2.16-0.84-2.4-1.99-0.89-3.63c0.42-0.45,0.93-0.82,1.42-1.21c4.86-3.91,9.64-7.91,14.59-11.71
					c9.11-6.99,18.3-13.87,28.39-19.45c1.58-0.88,3.56-2.52,5.15-1.15c0,0,0.49,0.34,0.73,1.03c5.19,14.73-34.86,61.26-34.86,61.26
					c-12.45,14.46-29.4,33.13-50.87,53.99c1.85,1.09,3.29,1.21,4.26,1.13c2.19-0.2,3.18-1.03,5.8-1.48
					c0.71-0.12,1.93,0.26,2.22,0.79c0.29,0.51-0.07,1.75-0.57,2.25c-2.39,2.36-4.75,4.8-7.44,6.79c-4.91,3.63-9.91,7.18-15.11,10.39
					c-10.73,6.63-21.6,13.02-32.44,19.47c-0.89,0.53-1.97,0.76-3.55,1.34c0-1.92-0.14-3.23,0.02-4.51
					c1.56-12.41,5.15-24.23,10.99-35.32c3.27-6.21,7.77-11.55,13.13-16.12c5.93-5.06,12.9-7.99,20.61-9.27
					c1.76-0.29,3.49-0.77,5.23-1.16c0-0.34,0.01-0.68,0.01-1.02c-1.25-0.35-2.49-0.77-3.76-1.04c-7.81-1.67-15.1-4.54-21.58-9.24
					c-9.4-6.82-15.5-16.04-19.66-26.64c-4.08-10.4-5.32-21.36-6.49-32.33c-0.08-0.75-0.28-1.5-0.42-2.24
					c-0.77,1.39-0.96,2.72-1.02,4.05c-0.46,9.44-1.87,18.76-4.79,27.76c-3.23,9.92-8.38,18.76-16.55,25.67
					c-6.83,5.77-14.66,9.4-23.41,11.24C228.58,381.13,227.1,381.58,225.22,382.07z"/>
			</g>
			<g>
				<g>
					<path d="M300.12,444.92c10.14-4.86,20.3-9.78,29.57-16.22c8.37-5.82,16.06-12.62,22.79-20.26c3.83-4.35,7.36-8.96,10.57-13.78
						c1.79-2.69-2.54-5.19-4.32-2.52c-11.19,16.8-26.42,30.28-44.1,39.93c-5.58,3.04-11.31,5.79-17.04,8.54
						c-1.22,0.58-1.54,2.32-0.9,3.42C297.43,445.26,298.9,445.5,300.12,444.92L300.12,444.92z"/>
				</g>
			</g>
			<g>
				<g>
					<path d="M263.8,468.94c16-7.92,33.83-11.45,49.44-20.25c2.8-1.58,0.29-5.9-2.52-4.32c-15.59,8.79-33.44,12.33-49.44,20.25
						C258.39,466.05,260.92,470.37,263.8,468.94L263.8,468.94z"/>
				</g>
			</g>
			<g>
				<g>
					<path d="M270.27,468.57c6.8-2.91,13.61-5.83,20.13-9.32c6.18-3.31,12.67-7.07,17.2-12.54c0.86-1.04,1.02-2.52,0-3.54
						c-0.89-0.89-2.67-1.04-3.54,0c-4.38,5.28-10.61,8.8-16.6,11.98c-6.4,3.4-13.07,6.25-19.72,9.1c-1.24,0.53-1.52,2.36-0.9,3.42
						C267.6,468.96,269.02,469.11,270.27,468.57L270.27,468.57z"/>
				</g>
			</g>
			<g>
				<g>
					<path d="M259.87,471.97c8.95-2.21,17.26-6.37,25.4-10.59c8.43-4.37,16.72-9.01,24.87-13.89c2.76-1.65,0.25-5.98-2.52-4.32
						c-8.01,4.8-16.16,9.36-24.44,13.67c-7.91,4.11-15.93,8.17-24.64,10.31C255.42,467.92,256.74,472.75,259.87,471.97
						L259.87,471.97z"/>
				</g>
			</g>
			<g>
				<g>
					<path d="M264.95,469.28c4.34,0.11,8.53-1.11,12.57-2.58c3.91-1.42,7.75-3.05,11.51-4.82c7.51-3.54,14.71-7.67,21.86-11.86
						c2.78-1.62,0.26-5.95-2.52-4.32c-6.89,4.03-13.82,8.01-21.03,11.46c-3.5,1.68-7.07,3.22-10.72,4.56
						c-3.77,1.38-7.62,2.66-11.68,2.56C261.73,464.2,261.73,469.2,264.95,469.28L264.95,469.28z"/>
				</g>
			</g>
			<g>
				<path d="M284.68,466.25c-1.85,1.78-3.36,3.25-4.34,4.21c19.22-7.4,34.32-15.7,45.11-22.4c25.62-15.92,37.48-29.38,42.04-34.89
					c2.16-2.61,20.32-24.55,15.49-30.47c-2.25-2.75-8.61-0.96-10.21-0.51c-12.99,3.66-16.89,15.41-27.06,29.11
					C332.62,428.92,327.7,424.79,284.68,466.25z"/>
			</g>
		</g>
	</g>
</g>
</svg>
